<svg height="800" width="800" version="1.1" id="Layer_1" xmlns="http://www.w3.org/2000/svg" viewBox="0 0 512 512" xml:space="preserve"><circle style="fill:#ffd15d" cx="256" cy="256" r="256"/><path style="fill:#f9b54c" d="M303.092 507.661c103.784-19.299 185.558-101.2 204.662-205.053L327.02 121.292l-68.905-13.364-65.296 39.951 68.76 68.873-17.646 232.324 59.159 58.585z"/><path style="fill:#324a5e" d="m329.388 123.63-56.027-56.027c-6.732-6.732-17.648-6.732-24.381 0l-56.027 56.027a17.24 17.24 0 0 0 12.191 29.429h38.788v296.019h34.478V153.059h38.788a17.242 17.242 0 0 0 15.927-10.642 17.236 17.236 0 0 0-3.737-18.787z"/><path style="fill:#2b3b4e" d="m329.388 123.63-56.027-56.027c-3.22-3.22-7.397-4.882-11.616-5.022v386.496h16.663V153.059h38.79a17.242 17.242 0 0 0 15.927-10.642 17.236 17.236 0 0 0-3.737-18.787z"/></svg>